HIERARCHY
ROOT Pelvis
{

	OFFSET     0.000000     0.000000     0.000000
	CHANNELS 6 Xposition Yposition Zposition Zrotation Xrotation Yrotation
	JOINT LowerBack
	{

		OFFSET    -0.000691     0.176488     0.017766
		CHANNELS 3 Zrotation Xrotation Yrotation
		JOINT Chest
		{

			OFFSET    -0.002754     0.128976    -0.000512
			CHANNELS 3 Zrotation Xrotation Yrotation
			JOINT back3
			{

				OFFSET     0.002471     0.201657    -0.000850
				CHANNELS 3 Zrotation Xrotation Yrotation
				JOINT Neck
				{

					OFFSET     0.001840     0.072570     0.000595
					CHANNELS 3 Zrotation Xrotation Yrotation
					JOINT Head
					{

						OFFSET     0.003323     0.152818     0.030907
						CHANNELS 3 Zrotation Xrotation Yrotation
						JOINT joint7
						{

							OFFSET     0.000612     0.183936     0.002625
							CHANNELS 3 Zrotation Xrotation Yrotation
							End Site
							{
								OFFSET     0.000000     0.000000     0.018310
							}
						}

					}

				}

				JOINT LeftCollar
				{

					OFFSET     0.053456     0.093486     0.002205
					CHANNELS 3 Zrotation Xrotation Yrotation
					JOINT LeftShoulder
					{

						OFFSET     0.112884    -0.020868     0.002319
						CHANNELS 3 Zrotation Xrotation Yrotation
						JOINT LeftElbow
						{

							OFFSET     0.297302     0.003523    -0.020737
							CHANNELS 3 Zrotation Xrotation Yrotation
							JOINT LeftWrist
							{

								OFFSET     0.290007     0.004431    -0.007313
								CHANNELS 3 Zrotation Xrotation Yrotation
								JOINT lf_hand
								{

									OFFSET     0.117001    -0.002589    -0.008771
									CHANNELS 3 Zrotation Xrotation Yrotation
									End Site
									{
										OFFSET     0.000000    -0.009821     0.000000
									}
								}

							}

						}

					}

				}

				JOINT RightCollar
				{

					OFFSET    -0.048666     0.096092     0.000301
					CHANNELS 3 Zrotation Xrotation Yrotation
					JOINT RightShoulder
					{

						OFFSET    -0.115072    -0.022479    -0.001894
						CHANNELS 3 Zrotation Xrotation Yrotation
						JOINT RightElbow
						{

							OFFSET    -0.297072     0.004954    -0.020752
							CHANNELS 3 Zrotation Xrotation Yrotation
							JOINT RightWrist
							{

								OFFSET    -0.292425    -0.005826    -0.023258
								CHANNELS 3 Zrotation Xrotation Yrotation
								JOINT rt_hand
								{

									OFFSET    -0.118185    -0.001061    -0.015047
									CHANNELS 3 Zrotation Xrotation Yrotation
									End Site
									{
										OFFSET     0.000000    -0.009987     0.000000
									}
								}

							}

						}

					}

				}

			}

			JOINT joint13
			{

				OFFSET     0.125914     0.117470     0.000000
				CHANNELS 3 Zrotation Xrotation Yrotation
				End Site
				{
					OFFSET     0.000000     0.000000    -0.017144
				}
			}

			JOINT joint14
			{

				OFFSET    -0.120063     0.114907     0.000000
				CHANNELS 3 Zrotation Xrotation Yrotation
				End Site
				{
					OFFSET     0.000000     0.000000    -0.016479
				}
			}

		}

	}

	JOINT RightHip
	{

		OFFSET    -0.109283    -0.057257     0.000987
		CHANNELS 3 Zrotation Xrotation Yrotation
		JOINT RightKnee
		{

			OFFSET     0.002149    -0.429339     0.038617
			CHANNELS 3 Zrotation Xrotation Yrotation
			JOINT RightAnkle
			{

				OFFSET    -0.001765    -0.522522    -0.077092
				CHANNELS 3 Zrotation Xrotation Yrotation
				JOINT r_ball
				{

					OFFSET    -0.000000    -0.037315     0.142913
					CHANNELS 3 Zrotation Xrotation Yrotation
					End Site
					{
						OFFSET     0.000000     0.000000     0.014648
					}
				}

			}

		}

	}

	JOINT LeftHip
	{

		OFFSET     0.098180    -0.056757     0.003895
		CHANNELS 3 Zrotation Xrotation Yrotation
		JOINT LeftKnee
		{

			OFFSET     0.007057    -0.430531     0.035812
			CHANNELS 3 Zrotation Xrotation Yrotation
			JOINT LeftAnkle
			{

				OFFSET    -0.005475    -0.521755    -0.078136
				CHANNELS 3 Zrotation Xrotation Yrotation
				JOINT lf_ball
				{

					OFFSET     0.000065    -0.036737     0.143337
					CHANNELS 3 Zrotation Xrotation Yrotation
					End Site
					{
						OFFSET     0.000000     0.000000     0.014648
					}
				}

			}

		}

	}

}

MOTION
Frames: 7
Frame Time: 0.033333
    0.000000     0.895266     0.000000    -1.844043    -2.474285   -42.354980    -0.464217    -4.500340     7.996880    -1.950872    13.955449     8.704811     0.000000     0.000000     0.000000     0.000000     0.000000     0.000000    -7.852325   -10.296695    15.887160     0.000000     0.000000     0.000000    17.430933     1.166628     3.728823   -95.871956    15.647841    18.148954     0.091809     0.651268   -16.047981     3.228534   -57.422142    -4.075254     0.000000     0.000000     0.000000    -9.994014     0.208139    -1.175640    73.421677    11.990219    -9.882610    -1.314546     2.116096    63.694550   -23.426050    13.817701     9.732764     0.000000     0.000000     0.000000     0.000000     0.000000     0.000000     0.000000     0.000000     0.000000     3.786255     9.364837    -1.398736     0.000000    16.228544     0.000000   -12.047296   -14.429302   -12.879831     0.000000     0.000000     0.000000    -2.010175   -29.760927     9.774057     0.000000    36.984947     0.000000    11.828787     0.469966     0.598439     0.000000     0.000000     0.000000 
   -0.016632     0.890012     0.036929    -0.155827    -0.322122   -42.661533    -0.204791    -2.927304     8.721874    -1.488889    14.780380     9.168542     0.000000     0.000000     0.000000     0.000000     0.000000     0.000000    -8.390381   -16.460672    15.526555     0.000000     0.000000     0.000000    18.307407     1.513667     4.462771  -103.051476    27.252321    22.530785     0.097588     0.671609   -16.534859     4.067606   -61.032455    -3.058276     0.000000     0.000000     0.000000    -9.579577     0.210896    -1.260039    73.302597     6.421729   -14.618537    -1.511490     2.196266    69.068726   -17.139116     6.726169    12.815335     0.000000     0.000000     0.000000     0.000000     0.000000     0.000000     0.000000     0.000000     0.000000     2.742224     7.786367    -1.238759     0.000000    17.813591     0.000000   -10.848670   -14.467980   -11.687236     0.000000     0.000000     0.000000    -5.134608   -27.801361     3.707555    -0.007819    30.258055     0.002114    10.131813    -1.159961     3.721049     0.000000     0.000000     0.000000 
   -0.033264     0.883917     0.073858     1.721045     1.914486   -43.196335    -0.021962    -1.230435     9.700171    -1.216185    15.723391     9.861782     0.000000     0.000000     0.000000     0.000000     0.000000     0.000000    -9.109510   -22.813103    14.672700     0.000000     0.000000     0.000000    19.197090     1.860273     5.201118  -110.958015    39.080055    28.371723     0.103524     0.691991   -17.016832     5.144171   -64.638504    -1.807934     0.000000     0.000000     0.000000    -9.151283     0.205909    -1.345052    73.104538     0.587916   -19.317554    -1.746800     2.276319    75.000763    -9.926730    -0.418588    17.122766     0.000000     0.000000     0.000000     0.000000     0.000000     0.000000     0.000000     0.000000     0.000000     1.430611     4.504882    -1.302621     0.000000    21.599031     0.000000    -9.324646   -12.433586    -8.981938     0.000000     0.000000     0.000000    -8.238513   -25.305681    -2.743834    -0.007440    22.811962     0.001501     9.565536    -3.126273     7.282866     0.000000     0.000000     0.000000 
   -0.050929     0.877178     0.112226     3.642193     4.141294   -43.808674     0.140082     0.385246    10.542284    -0.830879    16.610685    10.428862     0.000000     0.000000     0.000000     0.000000     0.000000     0.000000   -10.141864   -27.339710    13.491095     0.000000     0.000000     0.000000    20.071753     2.109012     5.562664  -115.583916    45.886284    32.805805     0.103728     0.691929   -17.051434     6.268654   -68.562027    -0.387089     0.000000     0.000000     0.000000    -8.758285     0.213617    -1.414997    72.960548    -5.783837   -23.559711    -1.939907     2.318972    79.825165    -3.451466    -6.203113    21.199516     0.000000     0.000000     0.000000     0.000000     0.000000     0.000000     0.000000     0.000000     0.000000    -0.133463    -0.040236    -1.497250     0.000000    26.716610     0.000000    -7.569005    -6.490277    -4.862778     0.000000     0.000000     0.000000   -10.492013   -23.096258    -7.758372     0.000000    16.788574     0.000000    10.127521    -4.751584    10.120795     0.000000     0.000000     0.000000 
   -0.069233     0.870277     0.151508     5.390036     6.247716   -44.316536     0.455338     1.792907    10.839047    -0.169821    17.303293    10.519757     0.000000     0.000000     0.000000     0.000000     0.000000     0.000000   -11.544162   -28.411390    12.713324     0.000000     0.000000     0.000000    19.173489     1.406689     3.913994  -113.638084    43.043140    33.490337     0.086427     0.630815   -15.602656     3.973054   -67.554367    -2.295109     0.000000     0.000000     0.000000    -8.421429     0.202988    -1.423074    72.923637   -13.007647   -26.814495    -2.022831     2.331133    81.897430     0.067668    -9.778208    22.847395     0.000000     0.000000     0.000000     0.000000     0.000000     0.000000     0.000000     0.000000     0.000000    -1.303824    -7.001905    -1.832227     0.000000    33.081516     0.000000    -9.441385    10.544104    -0.064528     0.000000     0.000000     0.000000   -11.333823   -22.128710    -9.777568     0.000000    14.316854     0.000000    10.619505    -5.421550    11.254855     0.000000     0.000000     0.000000 
   -0.087305     0.865839     0.190496     6.772628     8.148596   -44.530621     1.035571     2.803537    10.190564     1.056911    17.605581     9.759248     0.000000     0.000000     0.000000     0.000000     0.000000     0.000000   -12.855920   -27.127813    13.273235     0.000000     0.000000     0.000000    17.350185     0.340095     1.115782  -108.794159    34.054585    32.424648     0.067625     0.562712   -13.705331     0.688333   -63.215431    -5.239670     0.000000     0.000000     0.000000    -8.092187     0.169632    -1.208282    72.832672   -22.452623   -28.725855    -1.925938     2.312009    79.587288    -1.679370   -10.748886    19.790373     0.000000     0.000000     0.000000     0.000000     0.000000     0.000000     0.000000     0.000000     0.000000    -2.228826    -7.119814    -1.905476    -0.007896    31.471790     0.002225    -9.794063    15.898821     1.952313     0.000000     0.000000     0.000000   -12.527754   -22.420488   -10.849182     0.000000    15.621074     0.000000    11.399292    -8.442761    12.411963     0.000000     0.000000     0.000000 
   -0.105462     0.868848     0.229610     7.559253     9.750321   -44.218456     2.104383     3.322412     8.233370     3.161757    17.407736     7.976083     0.000000     0.000000     0.000000     0.000000     0.000000     0.000000   -13.650363   -25.753424    15.287671     0.000000     0.000000     0.000000    16.444359    -0.322161    -1.006598  -104.345978    26.566183    29.337156     0.070783     0.576422   -14.001307    -0.513259   -57.264111    -6.637219     0.000000     0.000000     0.000000    -7.763641     0.114568    -0.861708    71.995964   -32.469212   -29.525297    -1.713623     2.266239    74.186615    -7.113386    -9.432167    13.360564     0.000000     0.000000     0.000000     0.000000     0.000000     0.000000     0.000000     0.000000     0.000000    -5.250122   -12.272518    -6.215776    -0.008258    36.407524     0.002716   -11.499355    19.265184    -2.764221     0.000000     0.000000     0.000000   -13.434134   -20.462397   -12.675381     0.000000    14.033965     0.000000    11.212829    -9.601053    13.732555     0.000000     0.000000     0.000000 
